PathFileType	4	(X/Y/Z)	C:/Users/opensim2020/Desktop/walking_exp_matlab/subject03_walking13_straight_01.trc	
DataRate	CameraRate	NumFrames	NumMarkers	Units	OrigDataRate	OrigDataStartFrame	OrigNumFrames	
100.00	100.00	8	46	mm	100.00	592	185	
Frame#	Time	LFHD			RFHD			LBHD			RBHD			C7			T10			CLAV			STRN			RBAK			LSHO			LUPA			LELB			LFRM			LWRA			LWRB			LFIN			RSHO			RUPA			RELB			RFRM			RWRA			RWRB			RFIN			LASI			RASI			LPSI			RPSI			LTHI			LKNE			LTIB			LANK			LHEE			LTOE			RTHI			RKNE			RTIB			RANK			RHEE			RTOE			*39			*40			*41			*42			*43			*44			*45			
		X1	Y1	Z1	X2	Y2	Z2	X3	Y3	Z3	X4	Y4	Z4	X5	Y5	Z5	X6	Y6	Z6	X7	Y7	Z7	X8	Y8	Z8	X9	Y9	Z9	X10	Y10	Z10	X11	Y11	Z11	X12	Y12	Z12	X13	Y13	Z13	X14	Y14	Z14	X15	Y15	Z15	X16	Y16	Z16	X17	Y17	Z17	X18	Y18	Z18	X19	Y19	Z19	X20	Y20	Z20	X21	Y21	Z21	X22	Y22	Z22	X23	Y23	Z23	X24	Y24	Z24	X25	Y25	Z25	X26	Y26	Z26	X27	Y27	Z27	X28	Y28	Z28	X29	Y29	Z29	X30	Y30	Z30	X31	Y31	Z31	X32	Y32	Z32	X33	Y33	Z33	X34	Y34	Z34	X35	Y35	Z35	X36	Y36	Z36	X37	Y37	Z37	X38	Y38	Z38	X39	Y39	Z39	X40	Y40	Z40	X41	Y41	Z41	X42	Y42	Z42	X43	Y43	Z43	X44	Y44	Z44	X45	Y45	Z45	X46	Y46	Z46	

47	0.460	-1064.67310	-772.91187	1619.54004	-934.75146	-803.74963	1616.07556	-1090.82007	-885.73865	1550.48474	-962.09143	-911.86206	1547.21436	-1042.07312	-903.90894	1401.45007	-1041.29797	-958.76263	1098.77344	-1014.96375	-782.28888	1325.40356	-1017.29474	-746.76331	1155.55627	-965.85138	-980.34119	1231.98743	-1175.85315	-801.28101	1367.61743	-1252.78308	-773.93286	1180.67261	-1262.43567	-733.17480	1064.07117	-1243.33386	-665.90228	953.64532	-1197.45398	-616.32690	851.67578	-1252.15112	-623.15485	848.61731	-1232.40833	-575.73627	783.89349	-873.61420	-872.50476	1355.99268	-801.52637	-919.59497	1139.09729	-784.47534	-920.55957	1025.97229	-777.66400	-926.31274	889.12189	-805.85919	-906.95251	788.42358	-767.46576	-944.54205	790.66150	-772.45300	-932.54126	716.45447	-1141.59729	-812.33069	921.32385	-908.95605	-825.17188	923.20251	-1101.69995	-974.92346	956.15283	-953.65582	-981.51337	958.15546	-1181.96777	-908.63165	627.55237	-1141.82043	-945.49530	453.45151	-1153.63086	-1030.95764	274.95657	-1115.79785	-1090.25928	69.90699	-1086.64087	-1139.85645	38.48714	-1063.31396	-948.26276	28.44514	-853.04285	-803.87604	639.75519	-879.20288	-718.17535	482.25827	-876.61407	-732.92761	289.60593	-921.92413	-726.86151	73.30708	-979.51312	-763.05597	39.62340	-924.57385	-587.18146	42.42519	-1034.87341	-875.09363	1657.82031																		 
48	0.470	-1064.37964	-761.34845	1617.88257	-934.54767	-792.09772	1614.54504	-1090.50586	-874.04065	1548.73901	-961.73053	-900.06537	1545.50635	-1041.37732	-892.17017	1399.77563	-1040.01672	-946.84900	1096.91760	-1014.53455	-770.50903	1323.82544	-1017.22778	-734.71631	1154.08997	-965.62177	-968.31982	1229.79700	-1175.25012	-790.49786	1366.18994	-1252.39417	-761.23474	1180.24805	-1261.71753	-718.03674	1064.45056	-1241.28796	-647.50653	956.73022	-1193.93921	-594.15308	857.38483	-1248.46741	-601.13068	852.94379	-1227.69849	-551.28815	790.44128	-873.31616	-861.24243	1354.57056	-801.60413	-909.75604	1137.88818	-784.53778	-911.24609	1024.62695	-777.87115	-918.67426	887.79846	-805.64862	-899.67578	786.67767	-767.80957	-938.40826	789.58527	-772.42047	-927.33716	715.23004	-1141.31836	-800.81970	919.57190	-908.52521	-811.41364	921.26099	-1099.96826	-963.15387	954.25293	-951.86090	-968.44592	956.06073	-1181.62744	-900.24310	626.54669	-1140.72278	-939.88995	451.98090	-1153.12500	-1027.44739	275.52362	-1115.47229	-1089.71582	71.23318	-1086.33105	-1139.49097	40.49168	-1063.17749	-947.98364	28.17732	-851.90546	-791.98871	637.24585	-879.73090	-706.82068	479.87302	-875.36578	-711.57245	287.74603	-918.90601	-690.75311	71.78648	-976.45581	-725.10950	37.17768	-922.88470	-549.05615	45.30651	-1033.48755	-864.17365	1656.62622																		 
49	0.480	-1064.16528	-749.64471	1616.29077	-934.30481	-780.36194	1613.10034	-1090.13635	-862.28033	1547.03442	-961.34113	-888.19281	1543.86829	-1040.53357	-880.52002	1398.10010	-1038.69177	-934.76764	1095.11584	-1014.04614	-758.66132	1322.33704	-1017.08289	-722.48315	1152.66382	-965.16309	-956.16028	1227.69873	-1174.68237	-779.66425	1364.87891	-1251.78369	-748.53168	1179.90491	-1260.73743	-702.99231	1064.99854	-1239.12524	-629.31665	959.82135	-1190.39197	-572.72754	863.24597	-1244.82642	-579.63568	857.52338	-1222.98413	-527.65479	797.22192	-872.79425	-849.56799	1353.12012	-801.47925	-899.59381	1136.62830	-784.47931	-901.41058	1023.30334	-778.08087	-910.60065	886.50696	-805.99341	-893.76636	785.23785	-768.16962	-931.93829	788.52594	-772.58673	-921.78345	714.09277	-1141.01318	-789.08844	917.92041	-908.12695	-797.59692	919.43646	-1098.10486	-951.40039	952.13556	-949.90057	-955.19354	954.07935	-1181.21924	-891.37463	625.58667	-1140.86401	-932.32275	451.92139	-1152.51855	-1023.43530	276.15668	-1114.60840	-1088.46338	72.53093	-1085.97986	-1138.95874	42.84170	-1063.20544	-947.44623	27.87980	-850.69098	-781.05927	634.85980	-880.41724	-696.01794	477.30493	-874.42078	-691.57471	286.55566	-915.86420	-657.23077	71.56328	-973.36731	-690.23926	36.17930	-921.29620	-513.76306	49.49218	-1033.27710	-852.50940	1655.00415																		 
50	0.490	-1063.96155	-737.85590	1614.80298	-934.04120	-768.44049	1611.67944	-1089.70837	-850.46368	1545.40637	-960.91467	-876.15533	1542.27710	-1039.56116	-868.82922	1396.49121	-1037.43188	-922.24664	1093.34912	-1013.60187	-746.70966	1320.94092	-1016.97144	-710.15466	1151.37622	-964.40649	-943.74750	1225.70764	-1173.94824	-768.88147	1363.57300	-1251.09375	-735.81787	1179.71191	-1259.48523	-688.27979	1065.48303	-1236.95923	-611.75873	962.97400	-1186.79639	-552.12054	869.11682	-1241.12427	-558.87750	862.19800	-1218.33386	-504.74771	804.17499	-872.31268	-837.47290	1351.77795	-801.24243	-888.79797	1135.41077	-784.38397	-891.00543	1021.91913	-778.22028	-902.11176	885.18268	-806.00470	-885.24506	784.32544	-768.50525	-924.99628	787.49640	-772.79901	-915.71326	712.98639	-1140.33386	-776.72742	916.29193	-907.79498	-783.55023	917.87018	-1096.08960	-939.30493	950.08527	-947.81586	-941.61884	952.24634	-1180.70313	-881.97260	624.69049	-1140.48669	-924.77222	451.42264	-1152.08545	-1018.96057	277.04349	-1114.49414	-1087.57971	74.30533	-1085.75378	-1138.46191	45.52002	-1063.10901	-947.11713	27.65989	-849.51080	-770.75922	633.08661	-881.07227	-685.26373	475.00363	-873.57135	-672.49768	285.83533	-912.81024	-626.71887	72.42343	-969.83636	-658.07562	35.28280	-919.91559	-481.74359	55.14102	-1034.35608	-839.78101	1653.09888																		 
51	0.500	-1063.66663	-725.92725	1613.42029	-933.71863	-756.23126	1610.30884	-1089.22607	-838.55896	1543.94055	-960.38495	-864.10321	1540.90869	-1038.59033	-857.14893	1395.04126	-1036.14368	-909.66779	1091.49146	-1013.12378	-734.56348	1319.60181	-1016.93457	-697.48920	1150.23657	-963.37183	-931.19659	1223.81458	-1173.18237	-757.95331	1362.43311	-1249.96655	-723.17120	1179.35913	-1258.18567	-673.96863	1065.98047	-1234.92188	-594.69995	966.27753	-1183.38574	-532.11481	875.19830	-1237.52966	-538.64172	867.17285	-1213.72705	-482.67767	811.33392	-871.55377	-825.01294	1350.44934	-800.87671	-877.36200	1134.20251	-784.21210	-879.90948	1020.55420	-778.35260	-892.86011	883.87921	-806.45636	-879.00916	782.23224	-768.73187	-917.40881	786.49677	-773.32013	-909.18695	711.90186	-1141.24670	-765.55768	914.80957	-907.38776	-769.22168	916.69061	-1093.84521	-927.13324	948.01013	-945.66785	-927.85651	950.61566	-1180.07239	-872.00824	623.82526	-1140.20190	-916.59210	450.85437	-1151.80786	-1014.00238	278.04865	-1114.25598	-1086.40686	76.43164	-1085.76550	-1137.82556	48.62852	-1063.06482	-946.77612	27.45151	-848.33887	-760.60620	631.51172	-881.40472	-674.29559	473.30542	-872.77240	-654.16785	285.55237	-910.25909	-599.38409	73.91900	-966.46582	-629.57349	34.90193	-918.66064	-453.37360	61.82845	-1032.58936	-828.77307	1651.98425																		 
52	0.510	-1063.32019	-713.96057	1612.13745	-933.43854	-744.04065	1609.27917	-1088.64685	-826.60168	1542.64905	-959.80878	-851.87195	1539.70862	-1037.42065	-845.19440	1393.49951	-1034.93982	-896.68372	1089.91528	-1012.61804	-722.28528	1318.49768	-1016.72681	-684.78674	1149.20740	-962.07617	-918.45831	1222.14001	-1172.16016	-747.01849	1361.38196	-1249.01746	-710.31226	1179.08118	-1257.11609	-660.25214	1066.48413	-1232.91736	-578.30463	969.51318	-1179.98865	-512.97144	881.31854	-1234.01550	-519.13354	872.28638	-1209.21692	-461.50848	818.60089	-870.69122	-812.17694	1349.15674	-800.33710	-865.20880	1132.98401	-784.02020	-868.13672	1019.19818	-778.40894	-882.94696	882.67169	-806.01080	-870.09985	780.74384	-768.84180	-909.05811	785.57660	-773.59558	-902.35242	710.79980	-1140.64075	-752.88348	913.30695	-906.99780	-754.97107	915.85596	-1091.71204	-914.49567	946.04297	-943.60046	-913.87762	949.27325	-1179.29297	-861.42236	622.88922	-1139.94287	-907.76276	450.16376	-1150.61157	-1009.40533	278.30362	-1114.83716	-1085.53027	78.84554	-1086.30872	-1136.79590	51.86121	-1062.98987	-946.59503	27.25804	-847.59186	-749.60840	629.95264	-881.47913	-662.90839	471.83633	-872.14893	-636.84369	285.59882	-908.71375	-575.42261	75.38622	-964.52954	-604.72113	34.81330	-917.40936	-428.76791	67.90333	-1033.60864	-815.82800	1650.43262																		 
53	0.520	-1062.80432	-701.67639	1611.05615	-933.01697	-731.67554	1608.22156	-1088.06458	-814.55353	1541.59998	-959.18219	-839.59747	1538.75183	-1036.15344	-833.19464	1392.13611	-1033.77637	-883.61511	1088.43140	-1012.08746	-709.83081	1317.53906	-1016.53107	-671.76642	1148.39172	-960.58124	-905.57385	1220.61182	-1171.27698	-735.77136	1360.50159	-1247.79346	-697.64429	1178.93127	-1256.14929	-646.84363	1066.86646	-1230.98413	-562.50562	972.78046	-1176.68176	-494.58359	887.54193	-1230.64673	-500.34225	877.56531	-1204.88501	-441.14584	825.98651	-869.77130	-799.07635	1348.08447	-799.68219	-852.27954	1131.74329	-783.79578	-855.69196	1017.83893	-778.38037	-872.28656	881.53949	-807.29022	-862.16730	779.39294	-768.70825	-899.96747	784.69128	-774.19604	-894.87158	709.92859	-1140.20508	-740.15326	911.86237	-906.57642	-740.66522	915.31018	-1089.59607	-901.63342	944.13910	-941.67572	-899.81964	948.26172	-1178.45227	-850.24902	621.91132	-1139.75256	-898.02209	449.41956	-1151.39246	-1002.25140	280.15140	-1115.16846	-1083.99011	81.65112	-1086.64246	-1135.76257	55.99881	-1062.87805	-946.42853	27.10562	-847.01740	-737.09436	628.79736	-881.60352	-650.53644	470.75650	-872.07776	-620.86212	285.65894	-908.40070	-555.44208	76.37653	-964.12067	-583.35034	34.78262	-916.47034	-408.29462	71.98779	-1033.24878	-803.53271	1649.46570																		 
54	0.530	-1062.41382	-689.49353	1610.15234	-932.60669	-719.18848	1607.43872	-1087.40186	-802.41925	1540.74146	-958.45880	-827.23456	1538.03418	-1034.74194	-821.03070	1390.86389	-1032.64539	-870.37830	1087.06384	-1011.24292	-697.12756	1316.79529	-1016.08026	-658.63873	1147.67419	-958.82880	-892.60461	1219.33765	-1170.33386	-724.42438	1359.78882	-1246.54749	-685.06769	1178.82336	-1255.38977	-634.07507	1067.33826	-1229.19934	-547.36432	976.14624	-1173.60339	-476.99582	893.77502	-1227.40405	-482.39771	882.85522	-1200.73657	-421.73660	833.40411	-868.65680	-785.67950	1347.05322	-798.91858	-838.58459	1130.45874	-783.57904	-842.59698	1016.52521	-778.24005	-860.92853	880.41919	-807.58905	-852.89832	778.07208	-768.39148	-889.93866	783.94653	-774.77484	-886.30957	708.78656	-1139.83337	-727.00916	910.49957	-905.98291	-726.25421	914.99097	-1087.79309	-888.32825	942.34760	-939.96979	-885.69312	947.61340	-1177.58606	-838.35553	621.01990	-1139.46875	-887.25073	448.52087	-1150.31995	-996.06689	280.58069	-1115.34692	-1082.07983	85.04219	-1087.00854	-1134.45288	60.85092	-1062.78198	-946.21045	26.97086	-846.37183	-722.52466	628.37091	-881.51123	-637.35876	470.30807	-872.07153	-605.93341	285.36731	-909.10382	-539.37042	76.23873	-965.38062	-566.45056	34.40001	-916.26196	-392.23657	73.43381	-1031.10583	-792.24451	1648.98962																		 
